# xmcd
# 
# Track frame offsets:
#     150
#     16931
#     47461
#     60658
#     93534
#     121702
#     148408
#     174272
#     219725
#     242777
#     280180
# 
# Disc length: 4013
# 
# Revision: 10
# Processed by: cddbd v1.5.2PL0 Copyright (c) Steve Scherf et al.
# Submitted via: BonkEnc v1.0.15
# 
DISCID=990fab0b
DTITLE=Joe Bonamassa - Live From The Royal Albert Hall
DYEAR=2009
DGENRE=Blues Rock
TTITLE0=Django
TTITLE1=The Ballad Of John Henry
TTITLE2=So It's Like That
TTITLE3=Last Kiss
TTITLE4=So Many Roads
TTITLE5=Stop!
TTITLE6=Further On Up The Road
TTITLE7=Woke Up Dreaming
TTITLE8=High Water Everywhere
TTITLE9=Sloe Gin
TTITLE10=Lonesome Road Blues
EXTD=2CD 2009 - CD 1/2\nJ&R Adventures - Provogue - PRD 7274-2
EXTT0=
EXTT1=
EXTT2=
EXTT3=
EXTT4=
EXTT5=
EXTT6=
EXTT7=
EXTT8=
EXTT9=
EXTT10=
PLAYORDER=
